<svg id="Layer_1" data-name="Layer 1" xmlns="http://www.w3.org/2000/svg" viewBox="0 0 68 68"><defs><style>.cls-1{fill:#f5f8fa;fill-rule:evenodd;}.cls-2{fill:#333;}</style></defs><path class="cls-1" d="M34,0A34,34,0,1,1,0,34,34,34,0,0,1,34,0Z"/><path class="cls-2" d="M48.93015,19.7625H37.31093c-.74106,0-2.13029.97064-3.31093,1.91957-1.18064-.94893-2.56987-1.91957-3.31093-1.91957H19.06985a2.15342,2.15342,0,0,0-2.15093,2.15093v22.04A2.15311,2.15311,0,0,0,19.06985,46.104H30.68907a2.10085,2.10085,0,0,1,1.49529.61933l1.29989,1.3006a.72955.72955,0,0,0,1.0315,0l1.29953-1.3006a2.1023,2.1023,0,0,1,1.49565-.61933H48.93015a2.15311,2.15311,0,0,0,2.15093-2.15057v-22.04A2.15342,2.15342,0,0,0,48.93015,19.7625Zm.693,24.19094a.6933.6933,0,0,1-.693.69265H37.31093a3.55228,3.55228,0,0,0-2.5268,1.04646L34,46.477l-.78449-.78448a3.55083,3.55083,0,0,0-2.52644-1.04646H19.06985a.6933.6933,0,0,1-.693-.69265v-22.04a.6936.6936,0,0,1,.693-.693L30.656,21.21828A11.48754,11.48754,0,0,1,33.271,22.97119V43.24227a.729.729,0,0,0,1.45792,0V22.97119a12.43483,12.43483,0,0,1,2.582-1.75077H48.93015a.6936.6936,0,0,1,.693.693Z"/><path class="cls-2" d="M21.20262,28.33027h9.24263a.729.729,0,1,0,0-1.45792H21.20262a.729.729,0,1,0,0,1.45792Z"/><path class="cls-2" d="M21.20262,31.885h9.24263a.729.729,0,1,0,0-1.45792H21.20262a.729.729,0,0,0,0,1.45792Z"/><path class="cls-2" d="M47.38752,26.87235H44.0741a.729.729,0,0,0,0,1.45792h3.31342a.729.729,0,1,0,0-1.45792Z"/><path class="cls-2" d="M47.38752,30.4271H44.0741a.729.729,0,0,0,0,1.45792h3.31342a.729.729,0,0,0,0-1.45792Z"/><path class="cls-2" d="M47.38752,33.9822h-9.684a.729.729,0,0,0,0,1.45792h9.684a.729.729,0,0,0,0-1.45792Z"/><path class="cls-2" d="M47.38752,37.5366h-9.684a.729.729,0,0,0,0,1.45792h9.684a.729.729,0,0,0,0-1.45792Z"/><path class="cls-2" d="M24.16082,33.9822h-2.9582a.729.729,0,0,0,0,1.45792h2.9582a.729.729,0,1,0,0-1.45792Z"/><path class="cls-2" d="M24.16082,37.5366h-2.9582a.729.729,0,0,0,0,1.45792h2.9582a.729.729,0,1,0,0-1.45792Z"/><path class="cls-2" d="M37.70353,31.885h4.22961a.729.729,0,0,0,.729-.729V27.60131a.729.729,0,0,0-.729-.729H37.70353a.729.729,0,0,0-.729.729v3.55475A.729.729,0,0,0,37.70353,31.885Zm.729-3.55475h2.77169V30.4271H38.43249Z"/><path class="cls-2" d="M30.70758,33.9822h-4.23a.72877.72877,0,0,0-.729.729v3.5544a.72877.72877,0,0,0,.729.729h4.23a.72877.72877,0,0,0,.729-.729v-3.5544A.72877.72877,0,0,0,30.70758,33.9822Zm-.729,3.5544h-2.772V35.44012h2.772Z"/></svg>