<svg version="1.1" id="Layer_1" xmlns="http://www.w3.org/2000/svg" xmlns:xlink="http://www.w3.org/1999/xlink" x="0px" y="0px" viewBox="0 0 38.7 38.5" xml:space="preserve" style="font-size: 16px;"><g style="font-size: 16px;"><path d="M0.6,35.6c-0.7,0.7-0.7,1.8,0,2.4c0.7,0.7,1.8,0.7,2.4,0l16.4-16.3l-2.4-2.4L0.6,35.6z" style="font-size: 16px;"></path> <path d="M38.2,3c0.7-0.7,0.7-1.8,0-2.4c-0.7-0.7-1.8-0.7-2.4,0L19.4,16.8l2.4,2.4L38.2,3z" style="font-size: 16px;"></path> <path d="M21.8,19.3l-2.4-2.4L3,0.5c-0.7-0.7-1.8-0.7-2.4,0c-0.7,0.7-0.7,1.8,0,2.4l16.4,16.3l2.4,2.4L35.7,38
			c0.7,0.7,1.8,0.7,2.4,0c0.7-0.7,0.7-1.8,0-2.4L21.8,19.3z" style="font-size: 16px;"></path></g></svg>
