<svg version="1.1" id="Layer_1" xmlns="http://www.w3.org/2000/svg" xmlns:xlink="http://www.w3.org/1999/xlink" x="0px" y="0px" viewBox="0 0 28.1 28.1" xml:space="preserve" style="font-size: 16px;"><g style="font-size: 16px;"><path d="M21.4,14.1c-0.2-0.5-0.8-0.7-1.3-0.4c-0.5,0.2-0.7,0.8-0.4,1.3l1.6,3.2H6.9l7.2-14.8l1.1,2.3
      C15.4,6.1,16,6.3,16.4,6c0.5-0.2,0.7-0.8,0.4-1.3l-2-4.1c-0.2-0.3-0.5-0.5-0.9-0.5s-0.7,0.2-0.9,0.5L0.7,26.6c-0.2,0.5,0,1,0.4,1.3
      C1.3,27.9,1.4,28,1.6,28c0.4,0,0.7-0.2,0.9-0.5L6,20c0,0,0,0,0.1,0h16.1l3.6,7.4c0.2,0.3,0.5,0.5,0.9,0.5c0.1,0,0.3,0,0.4-0.1
      c0.5-0.2,0.7-0.8,0.4-1.3L21.4,14.1z" style="font-size: 16px;"></path> <path d="M14.3,16.1c0.5,0.2,1,0,1.3-0.4l1.6-3.2h7l1.6,3.2c0.2,0.3,0.5,0.5,0.9,0.5c0.1,0,0.3,0,0.4-0.1
      c0.5-0.2,0.7-0.8,0.4-1.3L21.5,2.6c-0.3-0.7-1.4-0.7-1.7,0l-5.9,12.3C13.6,15.4,13.8,15.9,14.3,16.1z M20.6,5.2l2.6,5.4H18
      L20.6,5.2z" style="font-size: 16px;"></path></g></svg>
