<svg version="1.1" id="Layer_1" xmlns="http://www.w3.org/2000/svg" xmlns:xlink="http://www.w3.org/1999/xlink" x="0px" y="0px" viewBox="0 0 22 22" xml:space="preserve" style="font-size: 16px;"><path d="M11,0c0,0-0.1,0-0.1,0c0,0,0,0,0,0C4.9,0.1,0,5,0,11c0,6.1,4.9,11,11,11c6.1,0,11-4.9,11-11S17.1,0,11,0z
         M20.6,10.3h-4.4c-0.2-3.3-1.4-6.4-3.6-8.8C17,2.3,20.3,5.9,20.6,10.3z M11,20.3c-2.3-2.3-3.7-5.4-3.9-8.7h7.8
        C14.7,14.9,13.3,18,11,20.3z M7.1,10.3C7.3,7.1,8.7,4,11,1.7c2.3,2.3,3.7,5.4,3.9,8.7H7.1z M9.3,1.5c-2.1,2.5-3.4,5.6-3.6,8.8H1.4
        C1.7,5.9,5,2.3,9.3,1.5z M1.4,11.7h4.4c0.2,3.3,1.4,6.4,3.6,8.8C5,19.7,1.7,16.1,1.4,11.7z M12.7,20.5c2.1-2.5,3.4-5.6,3.6-8.8h4.4
        C20.3,16.1,17,19.7,12.7,20.5z" style="font-size: 16px;"></path></svg>
