<svg id="Layer_1" data-name="Layer 1" xmlns="http://www.w3.org/2000/svg" viewBox="0 0 22 22"><path d="M17.57689,20.19434H4.423a.4248.4248,0,0,1-.42491-.42491V2.23057A.42494.42494,0,0,1,4.423,1.80566h8.76912a.42491.42491,0,1,1,0,.84982H4.84792v16.689H17.152V6.61513a.42491.42491,0,1,1,.84981,0v13.1543A.42466.42466,0,0,1,17.57689,20.19434Z" class="cls-1"></path><path d="M17.57689,7.04H13.19213a.4248.4248,0,0,1-.42491-.42491V2.23057a.42487.42487,0,0,1,.72533-.30042l4.38477,4.38456a.42487.42487,0,0,1-.30043.72533ZM13.617,6.19022h2.9341L13.617,3.25633Z" class="cls-1"></path><path d="M11,9.23242H6.61519a.42491.42491,0,1,1,0-.84981H11a.42491.42491,0,1,1,0,.84981Z" class="cls-1"></path><path d="M13.19213,12.52089H6.61519a.42491.42491,0,1,1,0-.84981h6.57694a.42491.42491,0,1,1,0,.84981Z" class="cls-1"></path><path d="M13.19213,15.80957H6.61519a.42491.42491,0,0,1,0-.84982h6.57694a.42491.42491,0,0,1,0,.84982Z" class="cls-1"></path></svg>
